<?xml version="1.0" encoding="UTF-8"?>
<svg width="400px" height="400px" viewBox="0 0 400 400" version="1.1" xmlns="http://www.w3.org/2000/svg">
    <defs>
        <path id="wheel" d="M200,50 A150,150 0 1,1 199.99,50" stroke="#4ECDC4" stroke-width="10" fill="none"/>
        <g id="squirrel">
            <!-- Body -->
            <path d="M40,20 C60,0 100,0 120,20 C140,40 140,80 120,100 C100,120 60,120 40,100 C20,80 20,40 40,20" fill="#FF6B6B"/>
            <!-- Tail -->
            <path d="M30,60 C10,40 0,20 10,10 C20,0 40,10 60,30" fill="#FF6B6B"/>
            <!-- Eye -->
            <circle cx="90" cy="40" r="5" fill="#2C3E50"/>
            <!-- Nose -->
            <circle cx="110" cy="50" r="3" fill="#2C3E50"/>
            <!-- Nut -->
            <circle cx="120" cy="70" r="10" fill="#8B4513"/>
        </g>
    </defs>
    
    <!-- Background circle -->
    <circle cx="200" cy="200" r="180" fill="#FFE66D" opacity="0.3"/>
    
    <!-- Wheel -->
    <use href="#wheel" x="0" y="0">
        <animateTransform
            attributeName="transform"
            type="rotate"
            from="0 200 200"
            to="360 200 200"
            dur="4s"
            repeatCount="indefinite"/>
    </use>
    
    <!-- Squirrel -->
    <use href="#squirrel" x="150" y="150">
        <animateTransform
            attributeName="transform"
            type="rotate"
            from="0 200 200"
            to="360 200 200"
            dur="4s"
            repeatCount="indefinite"/>
    </use>
    
    <!-- Nuts flying around -->
    <g>
        <circle cx="350" cy="200" r="10" fill="#8B4513">
            <animate
                attributeName="cx"
                values="350;50;350"
                dur="3s"
                repeatCount="indefinite"/>
            <animate
                attributeName="cy"
                values="200;200;200"
                dur="3s"
                repeatCount="indefinite"/>
        </circle>
        <circle cx="200" cy="350" r="10" fill="#8B4513">
            <animate
                attributeName="cy"
                values="350;50;350"
                dur="4s"
                repeatCount="indefinite"/>
            <animate
                attributeName="cx"
                values="200;200;200"
                dur="4s"
                repeatCount="indefinite"/>
        </circle>
    </g>
</svg>
